<svg width="1200" height="675" viewBox="0 0 1200 675" fill="none" xmlns="http://www.w3.org/2000/svg">
  <rect width="1200" height="675" rx="28" fill="#060E1F"/>
  <circle cx="215" cy="162" r="210" fill="url(#paint0_radial)" fill-opacity="0.6"/>
  <circle cx="954" cy="122" r="178" fill="url(#paint1_radial)" fill-opacity="0.45"/>
  <rect x="130" y="135" width="940" height="410" rx="22" fill="#0B1A32" stroke="#1C3858"/>
  <rect x="180" y="190" width="340" height="255" rx="16" fill="#101F3B" stroke="#2A476A"/>
  <rect x="560" y="190" width="460" height="78" rx="14" fill="#101F3B" stroke="#2A476A"/>
  <rect x="560" y="286" width="460" height="78" rx="14" fill="#101F3B" stroke="#2A476A"/>
  <rect x="560" y="382" width="460" height="78" rx="14" fill="#101F3B" stroke="#2A476A"/>
  <circle cx="252" cy="238" r="26" fill="#00DFFF" fill-opacity="0.85"/>
  <circle cx="328" cy="238" r="26" fill="#6DFFD2" fill-opacity="0.7"/>
  <circle cx="404" cy="238" r="26" fill="#78A6FF" fill-opacity="0.65"/>
  <path d="M236 370C290 310 366 300 458 352" stroke="#6DFFD2" stroke-width="4" stroke-linecap="round"/>
  <path d="M236 400C320 340 366 340 458 395" stroke="#00DFFF" stroke-width="4" stroke-linecap="round"/>
  <text x="180" y="96" fill="#88D8FF" font-size="36" font-family="monospace" letter-spacing="2">AURORA AI SAAS</text>
  <defs>
    <radialGradient id="paint0_radial" cx="0" cy="0" r="1" gradientUnits="userSpaceOnUse" gradientTransform="translate(215 162) rotate(90) scale(210)">
      <stop stop-color="#00DFFF"/>
      <stop offset="1" stop-color="#00DFFF" stop-opacity="0"/>
    </radialGradient>
    <radialGradient id="paint1_radial" cx="0" cy="0" r="1" gradientUnits="userSpaceOnUse" gradientTransform="translate(954 122) rotate(90) scale(178)">
      <stop stop-color="#6DFFD2"/>
      <stop offset="1" stop-color="#6DFFD2" stop-opacity="0"/>
    </radialGradient>
  </defs>
</svg>
