<svg width="1200" height="675" viewBox="0 0 1200 675" fill="none" xmlns="http://www.w3.org/2000/svg">
  <rect width="1200" height="675" rx="28" fill="#06111F"/>
  <rect x="104" y="116" width="992" height="442" rx="26" fill="#0D1D34" stroke="#2B4E74"/>
  <path d="M170 458L260 380L344 412L444 290L530 320L622 236L722 276L808 198L896 240L1030 180" stroke="#00DFFF" stroke-width="5" stroke-linecap="round" stroke-linejoin="round"/>
  <path d="M170 500L250 470L346 510L430 440L526 462L620 394L700 418L790 358L890 390L1030 326" stroke="#6DFFD2" stroke-width="5" stroke-linecap="round" stroke-linejoin="round"/>
  <circle cx="444" cy="290" r="12" fill="#00DFFF"/>
  <circle cx="622" cy="236" r="12" fill="#00DFFF"/>
  <circle cx="808" cy="198" r="12" fill="#00DFFF"/>
  <circle cx="700" cy="418" r="12" fill="#6DFFD2"/>
  <circle cx="890" cy="390" r="12" fill="#6DFFD2"/>
  <rect x="170" y="182" width="198" height="44" rx="12" fill="#102844" stroke="#2F5E8B"/>
  <rect x="390" y="182" width="198" height="44" rx="12" fill="#102844" stroke="#2F5E8B"/>
  <rect x="610" y="182" width="198" height="44" rx="12" fill="#102844" stroke="#2F5E8B"/>
  <text x="136" y="90" fill="#9AD9FF" font-size="36" font-family="monospace" letter-spacing="2">NEURAL INSIGHTS</text>
</svg>
